# xmcd
#
# Track frame offsets:
#	150
#	14196
#	29370
#	42807
#	57910
#	68179
#	90942
#	112408
#	124570
#	137392
#	149338
#	165630
#	182057
#	191658
#	203188
#	212039
#	228033
#	243621
#	260640
#	278349
#	292218
#	311004
#
# Disc length: 4382 seconds
#
# Revision: 1
# Processed by: cddbd v1.5.1PL0 Copyright (c) Steve Scherf et al.
# Submitted via: audiograbber 1.82.01
#
DISCID=4b111c16
DTITLE=Vela no Vento - A Galera Gosta
DYEAR=2005
DGENRE=Axé
TTITLE0=Pra fazer pirraça
TTITLE1=Vou navegar
TTITLE2=Manivela
TTITLE3=Rei da rua
TTITLE4=Empurra coração
TTITLE5=Salvador dalino
TTITLE6=Vampiro
TTITLE7=Tá pra la de bragadá
TTITLE8=O Asa arrasa
TTITLE9=Casamento não
TTITLE10=Com amor
TTITLE11=Tõa tõa
TTITLE12=Padang padang
TTITLE13=Oba vou passear
TTITLE14=Essa galera é bala
TTITLE15=Na Bahia aia
TTITLE16=Vela no vento
TTITLE17=Amor de fé
TTITLE18=Bota pra ferver
TTITLE19=Ficar com você
TTITLE20=Duas medidas
TTITLE21=Leva eu
EXTD=
EXTT0=
EXTT1=
EXTT2=
EXTT3=
EXTT4=
EXTT5=
EXTT6=
EXTT7=
EXTT8=
EXTT9=
EXTT10=
EXTT11=
EXTT12=
EXTT13=
EXTT14=
EXTT15=
EXTT16=
EXTT17=
EXTT18=
EXTT19=
EXTT20=
EXTT21=
PLAYORDER=
